<?xml version="1.0" encoding="UTF-8" standalone="no"?>
<!-- Created with Inkscape (http://www.inkscape.org/) -->

<svg
   xmlns:dc="http://purl.org/dc/elements/1.1/"
   xmlns:cc="http://creativecommons.org/ns#"
   xmlns:rdf="http://www.w3.org/1999/02/22-rdf-syntax-ns#"
   xmlns:svg="http://www.w3.org/2000/svg"
   xmlns="http://www.w3.org/2000/svg"
   xmlns:sodipodi="http://sodipodi.sourceforge.net/DTD/sodipodi-0.dtd"
   xmlns:inkscape="http://www.inkscape.org/namespaces/inkscape"
   width="162.896mm"
   height="162.896mm"
   viewBox="0 0 162.896 162.896"
   version="1.1"
   id="svg8"
   inkscape:version="0.92.4 (5da689c313, 2019-01-14)"
   sodipodi:docname="drawing.svg">
  <defs
     id="defs2" />
  <sodipodi:namedview
     id="base"
     pagecolor="#ffffff"
     bordercolor="#666666"
     borderopacity="1.0"
     inkscape:pageopacity="0.0"
     inkscape:pageshadow="2"
     inkscape:zoom="0.7"
     inkscape:cx="646.80727"
     inkscape:cy="157.44242"
     inkscape:document-units="mm"
     inkscape:current-layer="layer1-1"
     showgrid="false"
     inkscape:window-width="1920"
     inkscape:window-height="1017"
     inkscape:window-x="-8"
     inkscape:window-y="-8"
     inkscape:window-maximized="1" />
  <metadata
     id="metadata5">
    <rdf:RDF>
      <cc:Work
         rdf:about="">
        <dc:format>image/svg+xml</dc:format>
        <dc:type
           rdf:resource="http://purl.org/dc/dcmitype/StillImage" />
        <dc:title></dc:title>
      </cc:Work>
    </rdf:RDF>
  </metadata>
  <g
     inkscape:label="Layer 1"
     inkscape:groupmode="layer"
     id="layer1"
     transform="translate(-5.0000004,-0.1040063)">
    <g
       id="layer1-1"
       inkscape:label="Layer 1"
       transform="translate(14.970141,-143.97014)">
      <g
         inkscape:export-ydpi="512.09998"
         inkscape:export-xdpi="512.09998"
         transform="rotate(-14.272238,71.477856,225.52214)"
         id="g4922">
        <g
           id="g337"
           transform="translate(-28.522144,28.522144)"
           style="fill:#f44336;fill-opacity:1">
          <g
             transform="matrix(0.625,0,0,0.66666667,87.5,69.999999)"
             id="g161"
             style="fill:#f44336;fill-opacity:1">
            <rect
               id="rect157"
               width="15"
               height="40"
               x="12.5"
               y="237"
               style="fill:#f44336;fill-opacity:1;stroke-width:0.28112674" />
            <ellipse
               id="ellipse159"
               cx="20"
               cy="284.5"
               rx="20"
               ry="12.5"
               style="fill:#f44336;fill-opacity:1;stroke-width:0.26257592" />
          </g>
          <g
             transform="matrix(1,0,0,-1,0,394)"
             id="g303"
             style="fill:#f44336;fill-opacity:1">
            <g
               id="g267"
               transform="rotate(90,100,197)"
               style="fill:#f44336;fill-opacity:1">
              <g
                 transform="matrix(1,0,0,-1,0,394)"
                 id="g235"
                 style="fill:#f44336;fill-opacity:1">
                <g
                   id="g179"
                   transform="rotate(45,100,197)"
                   style="fill:#f44336;fill-opacity:1">
                  <g
                     id="g85"
                     transform="translate(80,-10)"
                     style="fill:#f44336;fill-opacity:1">
                    <rect
                       style="fill:#f44336;fill-opacity:1;stroke-width:0.28112674"
                       y="237"
                       x="12.5"
                       height="40"
                       width="15"
                       id="rect81" />
                    <ellipse
                       style="fill:#f44336;fill-opacity:1;stroke-width:0.26257592"
                       ry="12.5"
                       rx="20"
                       cy="284.5"
                       cx="20"
                       id="ellipse83" />
                  </g>
                  <g
                     transform="matrix(1,0,0,-1,0,394)"
                     id="g137"
                     style="fill:#f44336;fill-opacity:1">
                    <g
                       id="g123"
                       transform="rotate(90,100,197)"
                       style="fill:#f44336;fill-opacity:1">
                      <g
                         transform="matrix(1,0,0,-1,0,394)"
                         id="g91"
                         style="fill:#f44336;fill-opacity:1">
                        <circle
                           id="path10"
                           cx="100"
                           cy="197"
                           style="fill:#f44336;fill-opacity:1;stroke-width:0.2941176"
                           r="50" />
                        <g
                           id="g18"
                           transform="translate(80,-10)"
                           style="fill:#f44336;fill-opacity:1">
                          <rect
                             style="fill:#f44336;fill-opacity:1;stroke-width:0.28112674"
                             y="237"
                             x="12.5"
                             height="40"
                             width="15"
                             id="rect12" />
                          <ellipse
                             style="fill:#f44336;fill-opacity:1;stroke-width:0.26257592"
                             ry="12.5"
                             rx="20"
                             cy="284.5"
                             cx="20"
                             id="path14" />
                        </g>
                      </g>
                      <g
                         id="g113"
                         transform="translate(80,-10)"
                         style="fill:#f44336;fill-opacity:1">
                        <rect
                           style="fill:#f44336;fill-opacity:1;stroke-width:0.28112674"
                           y="237"
                           x="12.5"
                           height="40"
                           width="15"
                           id="rect109" />
                        <ellipse
                           style="fill:#f44336;fill-opacity:1;stroke-width:0.26257592"
                           ry="12.5"
                           rx="20"
                           cy="284.5"
                           cx="20"
                           id="ellipse111" />
                      </g>
                    </g>
                    <g
                       id="g107"
                       transform="translate(80,-10)"
                       style="fill:#f44336;fill-opacity:1">
                      <rect
                         style="fill:#f44336;fill-opacity:1;stroke-width:0.28112674"
                         y="237"
                         x="12.5"
                         height="40"
                         width="15"
                         id="rect103" />
                      <ellipse
                         style="fill:#f44336;fill-opacity:1;stroke-width:0.26257592"
                         ry="12.5"
                         rx="20"
                         cy="284.5"
                         cx="20"
                         id="ellipse105" />
                    </g>
                  </g>
                </g>
                <g
                   transform="matrix(0.625,0,0,0.66666667,87.5,69.999999)"
                   id="g213"
                   style="fill:#f44336;fill-opacity:1">
                  <rect
                     id="rect209"
                     width="15"
                     height="40"
                     x="12.5"
                     y="237"
                     style="fill:#f44336;fill-opacity:1;stroke-width:0.28112674" />
                  <ellipse
                     id="ellipse211"
                     cx="20"
                     cy="284.5"
                     rx="20"
                     ry="12.5"
                     style="fill:#f44336;fill-opacity:1;stroke-width:0.26257592" />
                </g>
              </g>
              <g
                 id="g241"
                 transform="matrix(0.625,0,0,0.66666667,87.5,69.999999)"
                 style="fill:#f44336;fill-opacity:1">
                <rect
                   style="fill:#f44336;fill-opacity:1;stroke-width:0.28112674"
                   y="237"
                   x="12.5"
                   height="40"
                   width="15"
                   id="rect237" />
                <ellipse
                   style="fill:#f44336;fill-opacity:1;stroke-width:0.26257592"
                   ry="12.5"
                   rx="20"
                   cy="284.5"
                   cx="20"
                   id="ellipse239" />
              </g>
            </g>
            <g
               transform="matrix(0.625,0,0,0.66666667,87.5,69.999999)"
               id="g273"
               style="fill:#f44336;fill-opacity:1">
              <rect
                 id="rect269"
                 width="15"
                 height="40"
                 x="12.5"
                 y="237"
                 style="fill:#f44336;fill-opacity:1;stroke-width:0.28112674" />
              <ellipse
                 id="ellipse271"
                 cx="20"
                 cy="284.5"
                 rx="20"
                 ry="12.5"
                 style="fill:#f44336;fill-opacity:1;stroke-width:0.26257592" />
            </g>
          </g>
        </g>
        <circle
           style="fill:#f9f9f9;stroke-width:0.23480743"
           id="path339"
           cx="71.5"
           cy="225.5"
           r="42.5" />
      </g>
      <path
         inkscape:export-ydpi="512.09998"
         inkscape:export-xdpi="512.09998"
         inkscape:connector-curvature="0"
         id="circle354"
         d="m 50.068559,188.81066 a 42.499999,42.499999 0 0 0 -19.763183,47.16205 42.499999,42.499999 0 0 0 51.666056,30.71094 42.499999,42.499999 0 0 0 2.072042,-0.60602 51.404763,46.491069 75.727762 0 1 -38.255877,-38.65887 51.404763,46.491069 75.727762 0 1 4.280962,-38.6081 z"
         style="fill:#ffcdd2;fill-opacity:1;stroke-width:0.23480743" />
      <g
         inkscape:export-ydpi="512.09998"
         inkscape:export-xdpi="512.09998"
         transform="translate(-5.8208336,0.52916667)"
         id="g352">
        <ellipse
           style="fill:#d40000;stroke-width:0.26458332"
           id="path343"
           cx="87.3125"
           cy="209.6875"
           rx="13.229166"
           ry="12.095239" />
        <ellipse
           style="fill:#d40000;stroke-width:0.26458332"
           id="path345"
           cx="52.349701"
           cy="219.51488"
           rx="7.3705359"
           ry="6.8035712" />
        <ellipse
           style="fill:#d40000;stroke-width:0.26458332"
           id="path347"
           cx="25.498987"
           cy="254.2001"
           rx="16.630953"
           ry="9.4494047"
           transform="rotate(-10.86311)" />
      </g>
      <ellipse
         inkscape:export-ydpi="512.09998"
         inkscape:export-xdpi="512.09998"
         ry="6.2366071"
         rx="7.5595236"
         cy="154.69196"
         cx="17.764879"
         id="path4924"
         style="fill:#d32f2f;fill-opacity:1;stroke-width:0.26458332" />
      <ellipse
         inkscape:export-ydpi="512.09998"
         inkscape:export-xdpi="512.09998"
         ry="3.4017856"
         rx="3.7797618"
         cy="191.16669"
         cx="142.11905"
         id="path4926"
         style="fill:#d32f2f;fill-opacity:1;stroke-width:0.26458332" />
      <ellipse
         inkscape:export-ydpi="512.09998"
         inkscape:export-xdpi="512.09998"
         ry="4.3467259"
         rx="8.6934519"
         cy="297.189"
         cx="119.44048"
         id="path4928"
         style="fill:#d32f2f;fill-opacity:1;stroke-width:0.2532295" />
      <ellipse
         inkscape:export-ydpi="512.09998"
         inkscape:export-xdpi="512.09998"
         ry="6.4255953"
         rx="7.7485118"
         cy="272.05356"
         cx="5.1026788"
         id="path4932"
         style="fill:#d32f2f;fill-opacity:1;stroke-width:0.26458332" />
      <path
         inkscape:export-ydpi="512.09998"
         inkscape:export-xdpi="512.09998"
         inkscape:connector-curvature="0"
         id="path4962"
         d="m 127.09179,1157.0357 c -28.923457,-7.2792 -57.26414,-29.0445 -69.161473,-53.115 -4.760544,-9.6315 -5.438213,-12.2712 -5.438213,-21.1831 0,-13.4483 4.868184,-21.8608 16.428572,-28.3894 7.407571,-4.1834 8.715417,-4.4373 22.857142,-4.4373 8.250002,0 17.892862,0.4879 21.428572,1.0842 l 6.42857,1.0841 15.5389,-26.4818 15.53892,-26.4818 -14.19323,-14.60234 C 119.65362,967.1612 109.73749,952.90973 99.404633,931.17166 l -7.623025,-16.03718 -8.930467,2.51488 c -9.643633,2.71571 -9.117935,2.01854 -12.457755,16.52141 -4.071838,17.6816 -19.516821,26.62041 -34.066581,19.7161 -11.356392,-5.38896 -22.052008,-20.7705 -25.956264,-37.32813 -2.5869341,-10.97097 -1.303007,-28.09808 2.731063,-36.43136 4.841431,-10.00105 11.522711,-14.50217 21.526481,-14.50217 9.854418,0 17.816636,4.66286 24.731689,14.48343 4.955174,7.0372 6.049636,7.22593 19.6603,3.39026 l 5.099399,-1.43707 -1.304463,-10.36117 c -2.950579,-23.43602 1.784811,-62.28095 10.168693,-83.4149 L 95.895277,780.94631 68.9903,765.02667 42.085321,749.10704 31.574427,757.02913 c -12.914899,9.73398 -23.3013715,13.8822 -34.8606344,13.92285 -19.9254556,0.0701 -31.7950836,-13.34472 -33.1717886,-37.49005 -2.411734,-42.2982 32.7199729,-91.73648 70.082439,-98.62189 11.912028,-2.19523 21.549131,0.80749 29.187595,9.09425 8.505805,9.2277 10.943273,18.02515 9.92223,35.81186 -0.45624,7.94778 -1.218644,16.05763 -1.694231,18.02192 -0.811551,3.3519 0.781207,4.54486 25.911584,19.40749 l 26.776279,15.83605 12.23925,-12.4307 c 18.36677,-18.65405 37.65895,-31.8762 60.43317,-41.41862 12.22493,-5.12226 11.62334,-3.73479 7.57067,-17.46036 -1.69864,-5.75293 -1.92639,-5.91745 -10.65634,-7.6982 -10.38977,-2.11933 -20.07669,-7.36585 -23.63947,-12.80335 -6.51543,-9.9438 -3.50662,-23.41651 7.53635,-33.74592 23.22176,-21.72123 65.38092,-22.23632 77.3473,-0.94499 5.97905,10.63826 2.36443,22.15829 -10.56964,33.68624 l -8.19133,7.30082 1.7629,7.87749 c 0.9696,4.33262 2.17564,8.54532 2.68012,9.36155 0.6332,1.02454 5.32591,1.03009 15.15564,0.0179 23.36043,-2.40546 60.44686,2.6296 80.21916,10.89099 2.79537,1.16799 5.30694,2.12361 5.58125,2.12361 0.27433,0 7.657,-12.03411 16.40595,-26.74247 10.02531,-16.85413 15.45487,-27.33707 14.68391,-28.35052 -0.67279,-0.88443 -4.23671,-5.58082 -7.91981,-10.43643 -16.83306,-22.1918 -17.01922,-46.92191 -0.44325,-58.88144 24.73347,-17.84515 73.76585,-4.95576 104.28266,27.41329 19.18441,20.34882 25.03206,41.5594 15.93086,57.78445 -4.2282,7.53778 -12.611,13.01571 -24.28903,15.87222 -8.36974,2.04729 -11.47234,2.15317 -21.42857,0.73129 -6.403,-0.91443 -12.87369,-1.82635 -14.3793,-2.02649 -2.15605,-0.28661 -6.02419,5.09769 -18.21202,25.35039 -8.511,14.14285 -15.47557,26.2399 -15.47681,26.88231 -10e-4,0.64241 5.15208,6.27411 11.45186,12.5149 15.83408,15.6858 27.2576,31.7505 37.50715,52.74564 4.79469,9.82143 8.83855,18.04512 8.98635,18.27485 0.1478,0.22974 4.52718,-0.65199 9.73197,-1.95939 7.83871,-1.96903 9.46325,-2.88299 9.46325,-5.32399 0,-8.00705 4.9772,-20.23298 10.6134,-26.0706 7.6766,-7.95092 14.6074,-9.29884 24.94565,-4.85144 23.38671,10.06069 35.87663,49.19572 23.56244,73.82887 -5.06359,10.12912 -11.28601,14.67313 -20.09291,14.67313 -10.59323,0 -18.16395,-4.5921 -27.6,-16.7411 l -3.57143,-4.59824 -9.65535,2.375 -9.65535,2.37498 1.08393,7.22326 c 3.3927,22.609 -0.40513,58.67679 -8.76212,83.21334 -2.60974,7.66236 -3.07438,10.60375 -1.82691,11.56519 2.86071,2.20483 47.5977,28.76963 50.00713,29.6942 1.44771,0.55556 5.2993,-1.49317 10.54474,-5.60891 41.19566,-32.32345 78.58667,-9.32542 68.37067,42.05265 -4.69596,23.61669 -21.94363,52.00459 -39.77726,65.46909 -15.57433,11.7587 -33.96911,16.9655 -45.95803,13.0088 -16.8035,-5.5456 -25.98538,-26.2344 -22.31222,-50.2742 0.87972,-5.7576 1.93265,-11.5557 2.33985,-12.8847 0.57816,-1.887 -5.0914,-5.8774 -25.87851,-18.2143 -14.64039,-8.68886 -26.75919,-15.79792 -26.93064,-15.79792 -0.17148,0 -6.73835,6.302 -14.59305,14.00446 -7.8547,7.70246 -19.7779,17.66176 -26.49598,22.13186 -11.5971,7.7164 -37.55113,21.0065 -41.02333,21.0065 -2.04903,0 -2.0622,-0.203 0.7005,10.7954 2.4816,9.8793 1.94941,9.4503 14.10764,11.3716 17.88236,2.8259 28.56913,18.0752 22.96002,32.7625 -2.67176,6.9959 -13.12316,17.5618 -21.68568,21.9233 -13.50932,6.8812 -33.7968,9.4941 -46.44238,5.9815 -17.52722,-4.8686 -25.91873,-20.9601 -18.50684,-35.4886 2.62232,-5.1402 11.23152,-14.008 16.41651,-16.9097 2.26681,-1.2685 2.2694,-1.9477 0.0413,-10.8178 l -2.37735,-9.4642 -21.63137,0.7897 c -25.22964,0.9211 -41.7896,-1.2055 -64.84474,-8.3273 -8.05307,-2.4876 -14.91002,-4.2547 -15.23763,-3.9268 -1.71056,1.7119 -30.83469,51.7703 -30.83469,52.9985 0,0.7947 2.58113,4.3773 5.73585,7.9612 3.1547,3.5839 7.81541,10.7394 10.35714,15.901 4.06826,8.2616 4.6213,10.7836 4.6213,21.0744 0,10.7131 -0.36269,12.2063 -4.34106,17.8718 -2.89258,4.1193 -7.12044,7.6034 -12.67081,10.442 -7.29673,3.7317 -10.03596,4.3046 -22.08752,4.6194 -8.4898,0.2218 -16.9196,-0.4363 -22.01521,-1.7188 z m 168.85243,-145.7464 c 71.27083,-11.55847 125.70733,-68.83887 134.42183,-141.4444 5.65014,-47.07462 -11.56575,-96.41052 -45.61005,-130.70557 -23.02258,-23.19216 -49.71684,-37.6665 -83.21014,-45.11877 -14.92287,-3.32036 -46.79634,-3.28392 -62.62518,0.0716 -68.67173,14.55745 -118.66925,67.94944 -128.52166,137.24737 -11.001083,77.37721 39.22381,154.00704 115.16486,175.71087 23.26331,6.6486 46.78574,8.0653 70.38034,4.2389 z"
         style="fill:#d32f2f;fill-opacity:1;stroke-width:1.42857146"
         transform="scale(0.26458333)" />
      <path
         inkscape:export-ydpi="512.09998"
         inkscape:export-xdpi="512.09998"
         transform="scale(0.26458333)"
         inkscape:connector-curvature="0"
         id="path4964"
         d="m 290.94812,836.67718 c -40.73292,-14.54674 -42.93383,-64.86165 -3.62746,-82.92722 10.89837,-5.00899 28.36425,-5.18866 40.54508,-0.41707 10.04901,3.93649 21.37004,14.51288 25.74599,24.05255 4.61565,10.06222 4.29697,25.70902 -0.72182,35.43998 -4.54929,8.82067 -14.63918,18.35783 -23.65538,22.35954 -9.56835,4.24677 -28.50646,4.98488 -38.28641,1.49222 z"
         style="fill:#d32f2f;fill-opacity:1;stroke-width:1.42857146" />
      <path
         inkscape:export-ydpi="512.09998"
         inkscape:export-xdpi="512.09998"
         transform="scale(0.26458333)"
         inkscape:connector-curvature="0"
         id="path4966"
         d="m 163.02217,853.4738 c -18.42086,-9.73385 -18.73135,-34.83005 -0.53772,-43.46349 12.30237,-5.83786 23.65877,-3.96707 33.0743,5.44847 9.21146,9.21145 9.8528,21.20259 1.6891,31.58105 -6.8783,8.74434 -23.82465,11.93003 -34.22568,6.43397 z"
         style="fill:#d32f2f;fill-opacity:1;stroke-width:1.42857146" />
      <path
         inkscape:export-ydpi="512.09998"
         inkscape:export-xdpi="512.09998"
         transform="scale(0.26458333)"
         inkscape:connector-curvature="0"
         id="path4968"
         d="m 221.06353,961.56692 c -20.78754,-5.40714 -31.71056,-18.05978 -27.87809,-32.29248 2.20371,-8.18395 13.73691,-20.10237 25.36606,-26.21332 26.09969,-13.71499 58.16329,-15.78224 80.02605,-5.15953 11.03398,5.3612 16.05741,11.94766 16.05741,21.05363 0,8.31039 -3.1507,14.50306 -11.21821,22.04927 -15.07953,14.10513 -34.03655,21.17548 -58.78179,21.92366 -10.45529,0.31613 -19.02565,-0.17881 -23.57143,-1.36123 z"
         style="fill:#d32f2f;fill-opacity:1;stroke-width:1.42857146" />
    </g>
  </g>
</svg>
